<?xml version="1.0" encoding="UTF-8"?><svg id="Layer_1" xmlns="http://www.w3.org/2000/svg" viewBox="0 0 110.53 45.5"><defs><style>.cls-1{fill:#fff;}</style></defs><g><path class="cls-1" d="m10.18,18.93v11.39c0,1.33-.86,2.18-2.15,2.18H.98v-2.03h6.2c.35,0,.55-.2.55-.58v-2.85h-.2c-.55.76-1.48,1.52-3.16,1.52-2.3,0-4.37-1.95-4.37-4.95s2.07-4.95,4.37-4.95c1.68,0,2.61.74,3.2,1.58h.19v-1.31h2.42Zm-2.42,4.68c0-1.75-1.13-2.85-2.65-2.85s-2.65,1.09-2.65,2.85,1.13,2.85,2.65,2.85,2.65-1.09,2.65-2.85Z"/><path class="cls-1" d="m14.78,20.29h.19c.37-1.03,1.19-1.4,2.42-1.4h1.01v2.07h-1.44c-1.25,0-2.15.66-2.15,2.03v5.62h-2.46v-9.67h2.42v1.36Z"/><path class="cls-1" d="m26.54,28.6v-1.31h-.19c-.58.84-1.52,1.58-3.2,1.58-2.3,0-4.37-1.95-4.37-5.11s2.07-5.11,4.37-5.11c1.68,0,2.61.74,3.2,1.58h.19v-1.31h2.42v9.67h-2.42Zm0-4.84c0-1.91-1.13-3-2.65-3s-2.65,1.09-2.65,3,1.13,3,2.65,3,2.65-1.09,2.65-3Z"/><path class="cls-1" d="m33.56,18.93v1.44h.19c.39-.82,1.21-1.6,2.98-1.6,2.26,0,3.76,1.66,3.76,4.06v5.77h-2.46v-5.66c0-1.46-.74-2.18-2.07-2.18-1.5,0-2.38,1.05-2.38,2.85v4.99h-2.46v-9.67h2.42Z"/><path class="cls-1" d="m49.47,28.6v-1.44h-.19c-.39.82-1.21,1.6-2.98,1.6-2.26,0-3.76-1.66-3.76-4.06v-5.77h2.46v5.65c0,1.46.74,2.18,2.07,2.18,1.5,0,2.38-1.05,2.38-2.85v-4.99h2.46v9.67h-2.42Z"/><path class="cls-1" d="m56.53,28.6h-2.46v-13.65h2.46v13.65Z"/><path class="cls-1" d="m65.89,28.6v-1.31h-.2c-.58.84-1.52,1.58-3.2,1.58-2.3,0-4.37-1.95-4.37-5.11s2.07-5.11,4.37-5.11c1.68,0,2.61.74,3.2,1.58h.2v-1.31h2.42v9.67h-2.42Zm0-4.84c0-1.91-1.13-3-2.65-3s-2.65,1.09-2.65,3,1.13,3,2.65,3,2.65-1.09,2.65-3Z"/><path class="cls-1" d="m72.91,20.29h.19c.37-1.03,1.19-1.4,2.42-1.4h1.01v2.07h-1.44c-1.25,0-2.15.66-2.15,2.03v5.62h-2.46v-9.67h2.42v1.36Z"/><path class="cls-1" d="m20.18,31.65c2.81,0,4.7,1.97,4.7,4.95v.92h-7.04c.1,1.25,1.09,2.24,2.46,2.24s2.05-.76,2.46-1.48l1.97,1.21c-.55.74-1.7,2.38-4.43,2.38-2.96,0-4.97-2.18-4.97-5.19s2.01-5.03,4.86-5.03Zm2.2,4.15c-.14-1.27-.96-2.05-2.22-2.05-1.38,0-2.15.82-2.3,2.05h4.52Z"/><path class="cls-1" d="m28.82,31.93v1.44h.19c.39-.82,1.21-1.6,2.98-1.6,2.26,0,3.76,1.66,3.76,4.06v5.77h-2.46v-5.66c0-1.46-.74-2.18-2.07-2.18-1.5,0-2.38,1.05-2.38,2.85v4.99h-2.46v-9.67h2.42Z"/><path class="cls-1" d="m42.1,31.65c2.81,0,4.7,1.97,4.7,4.95v.92h-7.04c.1,1.25,1.09,2.24,2.46,2.24s2.05-.76,2.46-1.48l1.97,1.21c-.55.74-1.7,2.38-4.43,2.38-2.96,0-4.97-2.18-4.97-5.19s2.01-5.03,4.86-5.03Zm2.2,4.15c-.14-1.27-.96-2.05-2.22-2.05-1.38,0-2.15.82-2.3,2.05h4.52Z"/><path class="cls-1" d="m50.74,33.29h.19c.37-1.03,1.19-1.4,2.42-1.4h1.01v2.07h-1.44c-1.25,0-2.15.66-2.15,2.03v5.62h-2.46v-9.67h2.42v1.36Z"/><path class="cls-1" d="m64.92,31.93v11.39c0,1.33-.86,2.18-2.15,2.18h-7.06v-2.03h6.2c.35,0,.55-.2.55-.58v-2.85h-.2c-.55.76-1.48,1.52-3.16,1.52-2.3,0-4.37-1.95-4.37-4.95s2.07-4.95,4.37-4.95c1.68,0,2.61.74,3.2,1.58h.2v-1.31h2.42Zm-2.42,4.68c0-1.75-1.13-2.85-2.65-2.85s-2.65,1.09-2.65,2.85,1.13,2.85,2.65,2.85,2.65-1.09,2.65-2.85Z"/><path class="cls-1" d="m76.65,31.93l-5.3,13.57h-2.65l1.37-3.28-4.02-10.3h2.65l2.55,6.98h.2l2.55-6.98h2.65Z"/></g><g><path class="cls-1" d="m77.73,3.98c-1.88-3.26-5.78-4.76-9.36-3.59l-25.46,8.27c-.98.32-.75,1.76.28,1.76h38.26l-3.72-6.44Z"/><path class="cls-1" d="m109.62,12.83h-26.79l3.73,6.47c1.8,3.12,5.72,4.28,8.93,2.64l14.53-7.41c.84-.43.54-1.71-.41-1.71Z"/></g></svg>